<mxfile host="app.diagrams.net" modified="2023-09-25T14:26:21.014Z" agent="Mozilla/5.0 (Macintosh; Intel Mac OS X 10_15_7) AppleWebKit/537.36 (KHTML, like Gecko) Chrome/112.0.0.0 Safari/537.36" etag="BU0Rlta1vTFu_qmFmQ5h" version="21.8.2" type="device">
  <diagram name="Seite-1" id="kd2MvjXqS4WT8QNaqASN">
    <mxGraphModel dx="1434" dy="1933" grid="1" gridSize="10" guides="1" tooltips="1" connect="1" arrows="1" fold="1" page="1" pageScale="1" pageWidth="827" pageHeight="1169" math="0" shadow="0">
      <root>
        <mxCell id="0" />
        <mxCell id="1" parent="0" />
        <mxCell id="W-gK-uwAD6_eHePclnSL-9" value="2. Distribute/Delegate&lt;br&gt;Sub-Skills" style="edgeStyle=orthogonalEdgeStyle;curved=1;rounded=0;orthogonalLoop=1;jettySize=auto;html=1;exitX=0.25;exitY=1;exitDx=0;exitDy=0;entryX=0.5;entryY=0;entryDx=0;entryDy=0;startArrow=classic;startFill=1;fontSize=14;fontStyle=1;labelBackgroundColor=none;" parent="1" source="W-gK-uwAD6_eHePclnSL-11" target="W-gK-uwAD6_eHePclnSL-18" edge="1">
          <mxGeometry x="0.1091" y="-47" relative="1" as="geometry">
            <mxPoint as="offset" />
          </mxGeometry>
        </mxCell>
        <mxCell id="W-gK-uwAD6_eHePclnSL-1" value="Dataspace" style="verticalAlign=top;align=left;spacingTop=8;spacingLeft=2;spacingRight=12;shape=cube;size=10;direction=south;fontStyle=4;html=1;rounded=0;shadow=0;comic=0;labelBackgroundColor=none;strokeWidth=1;fontFamily=Verdana;fontSize=12;fillColor=#ffe6cc;strokeColor=#d79b00;" parent="1" vertex="1">
          <mxGeometry x="260" y="170" width="440" height="290" as="geometry" />
        </mxCell>
        <mxCell id="W-gK-uwAD6_eHePclnSL-45" value="OEM B" style="verticalAlign=top;align=left;spacingTop=8;spacingLeft=2;spacingRight=12;shape=cube;size=10;direction=south;fontStyle=4;html=1;rounded=0;shadow=0;comic=0;labelBackgroundColor=none;strokeWidth=1;fontFamily=Verdana;fontSize=12;dashed=1;dashPattern=12 12;" parent="1" vertex="1">
          <mxGeometry x="193" y="340.75" width="190" height="189.25" as="geometry" />
        </mxCell>
        <mxCell id="W-gK-uwAD6_eHePclnSL-44" value="Component Supplier Sn" style="verticalAlign=top;align=left;spacingTop=8;spacingLeft=2;spacingRight=12;shape=cube;size=10;direction=south;fontStyle=4;html=1;rounded=0;shadow=0;comic=0;labelBackgroundColor=none;strokeWidth=1;fontFamily=Verdana;fontSize=12;dashed=1;dashPattern=12 12;" parent="1" vertex="1">
          <mxGeometry x="607" y="339.5" width="150" height="177.5" as="geometry" />
        </mxCell>
        <mxCell id="W-gK-uwAD6_eHePclnSL-2" value="Fleet Operator" style="verticalAlign=top;align=left;spacingTop=8;spacingLeft=2;spacingRight=12;shape=cube;size=10;direction=south;fontStyle=4;html=1;rounded=0;shadow=0;comic=0;labelBackgroundColor=none;strokeWidth=1;fontFamily=Verdana;fontSize=12" parent="1" vertex="1">
          <mxGeometry x="370" y="10" width="200" height="180" as="geometry" />
        </mxCell>
        <mxCell id="W-gK-uwAD6_eHePclnSL-3" value="Component Supplier S1" style="verticalAlign=top;align=right;spacingTop=8;spacingLeft=2;spacingRight=12;shape=cube;size=10;direction=south;fontStyle=4;html=1;rounded=0;shadow=0;comic=0;labelBackgroundColor=none;strokeWidth=1;fontFamily=Verdana;fontSize=12" parent="1" vertex="1">
          <mxGeometry x="570" y="370" width="170" height="210" as="geometry" />
        </mxCell>
        <mxCell id="W-gK-uwAD6_eHePclnSL-4" value="OEM A" style="verticalAlign=top;align=left;spacingTop=8;spacingLeft=2;spacingRight=12;shape=cube;size=10;direction=south;fontStyle=4;html=1;rounded=0;shadow=0;comic=0;labelBackgroundColor=none;strokeWidth=1;fontFamily=Verdana;fontSize=12" parent="1" vertex="1">
          <mxGeometry x="220" y="370" width="180" height="180" as="geometry" />
        </mxCell>
        <mxCell id="W-gK-uwAD6_eHePclnSL-5" value="" style="shape=datastore;whiteSpace=wrap;html=1;fillColor=#dae8fc;strokeColor=#6c8ebf;" parent="1" vertex="1">
          <mxGeometry x="270" y="480" width="80" height="40" as="geometry" />
        </mxCell>
        <mxCell id="W-gK-uwAD6_eHePclnSL-6" value="" style="shape=datastore;whiteSpace=wrap;html=1;fillColor=#dae8fc;strokeColor=#6c8ebf;" parent="1" vertex="1">
          <mxGeometry x="600" y="480" width="80" height="40" as="geometry" />
        </mxCell>
        <mxCell id="W-gK-uwAD6_eHePclnSL-7" value="Vehicle Backend" style="text;html=1;strokeColor=none;fillColor=none;align=center;verticalAlign=middle;whiteSpace=wrap;rounded=0;" parent="1" vertex="1">
          <mxGeometry x="280" y="490" width="60" height="30" as="geometry" />
        </mxCell>
        <mxCell id="W-gK-uwAD6_eHePclnSL-8" value="REST Backend&amp;nbsp;" style="text;html=1;strokeColor=none;fillColor=none;align=center;verticalAlign=middle;whiteSpace=wrap;rounded=0;" parent="1" vertex="1">
          <mxGeometry x="610" y="490" width="60" height="30" as="geometry" />
        </mxCell>
        <mxCell id="W-gK-uwAD6_eHePclnSL-10" style="edgeStyle=orthogonalEdgeStyle;curved=1;rounded=0;orthogonalLoop=1;jettySize=auto;html=1;exitX=0.25;exitY=1;exitDx=0;exitDy=0;entryX=0.5;entryY=0;entryDx=0;entryDy=0;startArrow=none;startFill=0;" parent="1" source="W-gK-uwAD6_eHePclnSL-11" target="W-gK-uwAD6_eHePclnSL-18" edge="1">
          <mxGeometry relative="1" as="geometry" />
        </mxCell>
        <mxCell id="un7QEkSLnHoimzCeCq8s-6" value="&lt;font style=&quot;font-size: 14px;&quot;&gt;&lt;b&gt;1. Use VIN/WMI&lt;br&gt;to distribute DTC + Behaviour Twin Request&lt;br&gt;to OEMs&amp;nbsp;&lt;/b&gt;&lt;/font&gt;" style="edgeLabel;html=1;align=center;verticalAlign=middle;resizable=0;points=[];labelBackgroundColor=none;" parent="W-gK-uwAD6_eHePclnSL-10" vertex="1" connectable="0">
          <mxGeometry x="-0.0691" y="3" relative="1" as="geometry">
            <mxPoint x="75" y="-19" as="offset" />
          </mxGeometry>
        </mxCell>
        <mxCell id="W-gK-uwAD6_eHePclnSL-11" value="EDC" style="html=1;dropTarget=0;fillColor=#ffe6cc;strokeColor=#d79b00;" parent="1" vertex="1">
          <mxGeometry x="485" y="131" width="40" height="35" as="geometry" />
        </mxCell>
        <mxCell id="W-gK-uwAD6_eHePclnSL-12" style="edgeStyle=orthogonalEdgeStyle;curved=1;rounded=0;orthogonalLoop=1;jettySize=auto;html=1;exitX=1;exitY=0.5;exitDx=0;exitDy=0;entryX=0;entryY=0.5;entryDx=0;entryDy=0;startArrow=none;startFill=0;endArrow=none;endFill=0;dashed=1;" parent="1" source="W-gK-uwAD6_eHePclnSL-13" target="W-gK-uwAD6_eHePclnSL-11" edge="1">
          <mxGeometry relative="1" as="geometry" />
        </mxCell>
        <mxCell id="W-gK-uwAD6_eHePclnSL-13" value="Agent" style="html=1;dropTarget=0;fillColor=#d5e8d4;strokeColor=#82b366;" parent="1" vertex="1">
          <mxGeometry x="413" y="131" width="70" height="35" as="geometry" />
        </mxCell>
        <mxCell id="W-gK-uwAD6_eHePclnSL-18" value="EDC" style="html=1;dropTarget=0;fillColor=#ffe6cc;strokeColor=#d79b00;" parent="1" vertex="1">
          <mxGeometry x="320" y="408" width="55" height="35" as="geometry" />
        </mxCell>
        <mxCell id="W-gK-uwAD6_eHePclnSL-19" value="2. Lookup Troubled&amp;nbsp;&lt;br&gt;Component, Supplier,&lt;br&gt;LoadSpectra &amp;amp; Adaption &lt;br&gt;Values" style="edgeStyle=orthogonalEdgeStyle;curved=1;rounded=0;orthogonalLoop=1;jettySize=auto;html=1;exitX=0.5;exitY=1;exitDx=0;exitDy=0;entryX=0.5;entryY=0;entryDx=0;entryDy=0;startArrow=classic;startFill=1;fontSize=14;fontStyle=1;labelBackgroundColor=none;" parent="1" source="W-gK-uwAD6_eHePclnSL-20" target="W-gK-uwAD6_eHePclnSL-5" edge="1">
          <mxGeometry x="-0.4118" y="-109" relative="1" as="geometry">
            <mxPoint x="-109" y="-102" as="offset" />
            <mxPoint x="310" y="472.5" as="targetPoint" />
          </mxGeometry>
        </mxCell>
        <mxCell id="W-gK-uwAD6_eHePclnSL-20" value="Agent" style="html=1;dropTarget=0;fillColor=#d5e8d4;strokeColor=#82b366;" parent="1" vertex="1">
          <mxGeometry x="244" y="408" width="70" height="35" as="geometry" />
        </mxCell>
        <mxCell id="W-gK-uwAD6_eHePclnSL-21" value="EDC" style="html=1;dropTarget=0;fillColor=#ffe6cc;strokeColor=#d79b00;" parent="1" vertex="1">
          <mxGeometry x="580" y="408" width="55" height="35" as="geometry" />
        </mxCell>
        <mxCell id="W-gK-uwAD6_eHePclnSL-23" value="Agent" style="html=1;dropTarget=0;fillColor=#d5e8d4;strokeColor=#82b366;" parent="1" vertex="1">
          <mxGeometry x="640" y="408" width="80" height="35" as="geometry" />
        </mxCell>
        <mxCell id="W-gK-uwAD6_eHePclnSL-24" value="" style="endArrow=none;startArrow=none;html=1;rounded=0;curved=1;entryX=0;entryY=0.5;entryDx=0;entryDy=0;exitX=1;exitY=0.5;exitDx=0;exitDy=0;startFill=0;endFill=0;dashed=1;" parent="1" source="W-gK-uwAD6_eHePclnSL-21" target="W-gK-uwAD6_eHePclnSL-23" edge="1">
          <mxGeometry width="50" height="50" relative="1" as="geometry">
            <mxPoint x="540" y="480" as="sourcePoint" />
            <mxPoint x="590" y="430" as="targetPoint" />
          </mxGeometry>
        </mxCell>
        <mxCell id="W-gK-uwAD6_eHePclnSL-25" value="" style="endArrow=none;startArrow=none;html=1;rounded=0;curved=1;exitX=1;exitY=0.5;exitDx=0;exitDy=0;endFill=0;startFill=0;dashed=1;" parent="1" source="W-gK-uwAD6_eHePclnSL-20" edge="1">
          <mxGeometry width="50" height="50" relative="1" as="geometry">
            <mxPoint x="310" y="470" as="sourcePoint" />
            <mxPoint x="320" y="426" as="targetPoint" />
          </mxGeometry>
        </mxCell>
        <mxCell id="W-gK-uwAD6_eHePclnSL-29" value="6. Report/Order Behaviour Twin Results" style="edgeStyle=orthogonalEdgeStyle;curved=1;rounded=0;orthogonalLoop=1;jettySize=auto;html=1;exitX=1;exitY=0;exitDx=0;exitDy=0;labelBackgroundColor=none;fontSize=14;startArrow=none;startFill=0;endArrow=classic;endFill=1;fontStyle=1;entryX=0.25;entryY=1;entryDx=0;entryDy=0;fontColor=#000000;fontFamily=Helvetica;" parent="1" source="W-gK-uwAD6_eHePclnSL-13" edge="1">
          <mxGeometry x="-0.4771" y="-127" relative="1" as="geometry">
            <mxPoint x="442.5" y="95" as="targetPoint" />
            <mxPoint x="127" y="126" as="offset" />
          </mxGeometry>
        </mxCell>
        <mxCell id="W-gK-uwAD6_eHePclnSL-39" value="Tier-X" style="verticalAlign=top;align=left;spacingTop=8;spacingLeft=2;spacingRight=12;shape=cube;size=10;direction=south;fontStyle=4;html=1;rounded=0;shadow=0;comic=0;labelBackgroundColor=none;strokeWidth=1;fontFamily=Verdana;fontSize=12;dashed=1;dashPattern=12 12;" parent="1" vertex="1">
          <mxGeometry x="670" y="190" width="110" height="120" as="geometry" />
        </mxCell>
        <mxCell id="W-gK-uwAD6_eHePclnSL-43" style="edgeStyle=orthogonalEdgeStyle;rounded=0;orthogonalLoop=1;jettySize=auto;html=1;curved=1;startArrow=classic;startFill=1;endArrow=none;endFill=0;entryX=0.311;entryY=-0.029;entryDx=0;entryDy=0;entryPerimeter=0;exitX=1;exitY=0.5;exitDx=0;exitDy=0;dashed=1;" parent="1" source="W-gK-uwAD6_eHePclnSL-40" target="W-gK-uwAD6_eHePclnSL-3" edge="1">
          <mxGeometry relative="1" as="geometry">
            <Array as="points">
              <mxPoint x="800" y="288" />
              <mxPoint x="800" y="426" />
            </Array>
          </mxGeometry>
        </mxCell>
        <mxCell id="W-gK-uwAD6_eHePclnSL-46" value="&lt;span style=&quot;font-size: 14px;&quot;&gt;5. Optional Sub-Delegation&lt;/span&gt;" style="edgeLabel;html=1;align=center;verticalAlign=middle;resizable=0;points=[];fontStyle=2" parent="W-gK-uwAD6_eHePclnSL-43" vertex="1" connectable="0">
          <mxGeometry x="-0.3956" y="4" relative="1" as="geometry">
            <mxPoint x="86" y="30" as="offset" />
          </mxGeometry>
        </mxCell>
        <mxCell id="W-gK-uwAD6_eHePclnSL-40" value="" style="html=1;dropTarget=0;fillColor=#ffe6cc;strokeColor=#d79b00;" parent="1" vertex="1">
          <mxGeometry x="700" y="270" width="34" height="35" as="geometry" />
        </mxCell>
        <mxCell id="W-gK-uwAD6_eHePclnSL-41" value="" style="html=1;dropTarget=0;fillColor=#d5e8d4;strokeColor=#82b366;" parent="1" vertex="1">
          <mxGeometry x="699" y="230" width="35" height="35" as="geometry" />
        </mxCell>
        <mxCell id="W-gK-uwAD6_eHePclnSL-42" value="&lt;b style=&quot;font-size: 14px;&quot;&gt;3. Delegate&amp;nbsp;&lt;br&gt;&lt;/b&gt;" style="edgeStyle=orthogonalEdgeStyle;rounded=0;orthogonalLoop=1;jettySize=auto;html=1;entryX=0.5;entryY=1;entryDx=0;entryDy=0;curved=1;fontSize=14;startArrow=classic;startFill=1;endArrow=none;endFill=0;exitX=0.5;exitY=1;exitDx=0;exitDy=0;" parent="1" source="W-gK-uwAD6_eHePclnSL-21" target="W-gK-uwAD6_eHePclnSL-18" edge="1">
          <mxGeometry x="-0.207" y="-30" relative="1" as="geometry">
            <mxPoint x="1" as="offset" />
            <Array as="points">
              <mxPoint x="608" y="470" />
              <mxPoint x="348" y="470" />
            </Array>
          </mxGeometry>
        </mxCell>
        <mxCell id="9vBfcYl8E0RJBpWz1sZ_-4" style="edgeStyle=orthogonalEdgeStyle;curved=1;rounded=0;orthogonalLoop=1;jettySize=auto;html=1;exitX=0.99;exitY=0.5;exitDx=0;exitDy=0;entryX=0;entryY=0.75;entryDx=0;entryDy=0;startArrow=none;startFill=0;exitPerimeter=0;" parent="1" target="ITOlTNActnDJ-gH6PUd9-6" edge="1">
          <mxGeometry relative="1" as="geometry">
            <mxPoint x="279.5" y="77.75" as="sourcePoint" />
            <mxPoint x="415" y="77.5" as="targetPoint" />
          </mxGeometry>
        </mxCell>
        <mxCell id="9vBfcYl8E0RJBpWz1sZ_-6" value="OBDA/LTE Dongle" style="edgeLabel;html=1;align=center;verticalAlign=middle;resizable=0;points=[];" parent="9vBfcYl8E0RJBpWz1sZ_-4" vertex="1" connectable="0">
          <mxGeometry x="-0.433" relative="1" as="geometry">
            <mxPoint x="23" y="-8" as="offset" />
          </mxGeometry>
        </mxCell>
        <mxCell id="9vBfcYl8E0RJBpWz1sZ_-7" value="Diagnostic &lt;br&gt;Trouble &lt;br&gt;Codes" style="edgeLabel;html=1;align=center;verticalAlign=middle;resizable=0;points=[];" parent="9vBfcYl8E0RJBpWz1sZ_-4" vertex="1" connectable="0">
          <mxGeometry x="-0.3888" y="1" relative="1" as="geometry">
            <mxPoint x="24" y="23" as="offset" />
          </mxGeometry>
        </mxCell>
        <mxCell id="9vBfcYl8E0RJBpWz1sZ_-14" value="&lt;b style=&quot;font-size: 14px;&quot;&gt;&lt;br&gt;&lt;/b&gt;" style="edgeStyle=orthogonalEdgeStyle;rounded=0;orthogonalLoop=1;jettySize=auto;html=1;entryX=1;entryY=0.5;entryDx=0;entryDy=0;curved=1;fontSize=14;startArrow=classic;startFill=1;endArrow=none;endFill=0;exitX=0.138;exitY=1;exitDx=0;exitDy=0;exitPerimeter=0;" parent="1" source="W-gK-uwAD6_eHePclnSL-44" target="W-gK-uwAD6_eHePclnSL-18" edge="1">
          <mxGeometry x="0.4074" y="-116" relative="1" as="geometry">
            <mxPoint x="97" y="115" as="offset" />
            <mxPoint x="590" y="436" as="sourcePoint" />
            <mxPoint x="385" y="436" as="targetPoint" />
          </mxGeometry>
        </mxCell>
        <mxCell id="ITOlTNActnDJ-gH6PUd9-1" value="" style="shape=image;verticalLabelPosition=bottom;labelBackgroundColor=default;verticalAlign=top;aspect=fixed;imageAspect=0;image=https://www.merkle-partner.de/fileadmin/_processed_/b/1/csm_stroemungssimulation-im-getriebebau_38c02e8dc9.jpg;" vertex="1" parent="1">
          <mxGeometry x="590" y="480" width="126.31" height="90" as="geometry" />
        </mxCell>
        <mxCell id="W-gK-uwAD6_eHePclnSL-22" value="4. Perform Behaviour Twin&lt;br&gt;Simulation" style="edgeStyle=orthogonalEdgeStyle;curved=1;rounded=0;orthogonalLoop=1;jettySize=auto;html=1;exitX=0.5;exitY=1;exitDx=0;exitDy=0;startArrow=classic;startFill=1;fontSize=14;fontStyle=1" parent="1" source="W-gK-uwAD6_eHePclnSL-23" edge="1">
          <mxGeometry x="-0.4772" y="60" relative="1" as="geometry">
            <mxPoint x="640" y="480" as="targetPoint" />
            <mxPoint x="60" y="-53" as="offset" />
          </mxGeometry>
        </mxCell>
        <mxCell id="ITOlTNActnDJ-gH6PUd9-2" value="" style="shape=image;verticalLabelPosition=bottom;labelBackgroundColor=default;verticalAlign=top;aspect=fixed;imageAspect=0;image=https://d33wubrfki0l68.cloudfront.net/5424d4e29e6947cf721e882a7cdda3fba6ddafc2/e63a2/wp-content/uploads/2022/05/bye-dongles-hello-telematics.jpg;" vertex="1" parent="1">
          <mxGeometry x="53.849999999999994" y="-20" width="226.15" height="160" as="geometry" />
        </mxCell>
        <mxCell id="9vBfcYl8E0RJBpWz1sZ_-8" style="edgeStyle=orthogonalEdgeStyle;curved=1;rounded=0;orthogonalLoop=1;jettySize=auto;html=1;exitX=0.48;exitY=1.086;exitDx=0;exitDy=0;startArrow=none;startFill=0;exitPerimeter=0;entryX=0.5;entryY=1;entryDx=0;entryDy=0;" parent="1" edge="1" target="W-gK-uwAD6_eHePclnSL-7">
          <mxGeometry relative="1" as="geometry">
            <mxPoint x="117.5" y="107.49900000000002" as="sourcePoint" />
            <mxPoint x="313.5" y="522.5" as="targetPoint" />
            <Array as="points">
              <mxPoint x="70" y="108" />
              <mxPoint x="70" y="630" />
              <mxPoint x="310" y="630" />
            </Array>
          </mxGeometry>
        </mxCell>
        <mxCell id="9vBfcYl8E0RJBpWz1sZ_-9" value="Connected Vehicle&lt;br&gt;Telematics incl.&lt;br&gt;Adaption Values&lt;br&gt;&lt;br&gt;Repair Shop Diagnoses incl.&lt;br&gt;LoadSpectra" style="edgeLabel;html=1;align=center;verticalAlign=middle;resizable=0;points=[];" parent="9vBfcYl8E0RJBpWz1sZ_-8" vertex="1" connectable="0">
          <mxGeometry x="-0.433" relative="1" as="geometry">
            <mxPoint x="89" y="-140" as="offset" />
          </mxGeometry>
        </mxCell>
        <mxCell id="ITOlTNActnDJ-gH6PUd9-6" value="" style="shape=image;verticalLabelPosition=bottom;labelBackgroundColor=default;verticalAlign=top;aspect=fixed;imageAspect=0;image=https://www.avrios.com/wp-content/uploads/2021/03/image-3.png;clipPath=inset(5.38% 5% 33.08% 2.67%);" vertex="1" parent="1">
          <mxGeometry x="385" y="20" width="175.36" height="75.96" as="geometry" />
        </mxCell>
      </root>
    </mxGraphModel>
  </diagram>
</mxfile>
